<?xml version="1.0" standalone="no"?><!DOCTYPE svg PUBLIC "-//W3C//DTD SVG 1.1//EN" "http://www.w3.org/Graphics/SVG/1.1/DTD/svg11.dtd"><svg t="1722850590090" class="icon" viewBox="0 0 1024 1024" version="1.1" xmlns="http://www.w3.org/2000/svg" p-id="45318" xmlns:xlink="http://www.w3.org/1999/xlink" width="128" height="128"><path d="M512 191.744C422.656 122.88 321.792 111.445333 238.336 149.418667 146.602667 191.146667 85.333333 288.341333 85.333333 409.301333c0 137.045333 72.448 248.405333 157.354667 328.704 84.736 80.213333 186.410667 133.930667 256.469333 156.032l3.029334 0.853334a42.496 42.496 0 0 0 22.656-0.853334c70.058667-22.101333 171.733333-75.861333 256.512-156.032C866.261333 657.706667 938.666667 546.346667 938.666667 409.301333c0-120.96-61.226667-218.154667-153.002667-259.882666-83.456-37.973333-184.32-26.538667-273.664 42.325333z" fill="#FF684E" p-id="45319"></path></svg>