<svg width="353" height="72" viewBox="0 0 353 72" fill="none" xmlns="http://www.w3.org/2000/svg">
<circle cx="346" cy="50" r="6" fill="black"/>
<path d="M323.349 56.576C320.533 56.576 318.085 56.048 316.005 54.992C313.957 53.936 312.357 52.608 311.205 51.008C310.053 49.376 309.317 47.68 308.997 45.92L315.141 44.288C315.621 46.24 316.581 47.76 318.021 48.848C319.461 49.936 321.269 50.48 323.445 50.48C325.109 50.48 326.453 50.064 327.477 49.232C328.533 48.4 329.061 47.408 329.061 46.256C329.061 45.2 328.677 44.288 327.909 43.52C327.173 42.72 326.165 42.192 324.885 41.936L319.509 40.88C316.661 40.336 314.421 39.104 312.789 37.184C311.157 35.264 310.341 32.928 310.341 30.176C310.341 28.256 310.885 26.496 311.973 24.896C313.093 23.264 314.565 21.984 316.389 21.056C318.245 20.128 320.213 19.664 322.293 19.664C324.949 19.664 327.205 20.112 329.061 21.008C330.917 21.904 332.357 23.04 333.381 24.416C334.437 25.76 335.141 27.184 335.493 28.688L329.397 30.608C328.725 28.88 327.813 27.648 326.661 26.912C325.509 26.144 324.053 25.76 322.293 25.76C321.301 25.76 320.405 25.968 319.605 26.384C318.837 26.8 318.229 27.344 317.781 28.016C317.365 28.656 317.157 29.312 317.157 29.984C317.157 31.04 317.509 31.968 318.213 32.768C318.917 33.536 319.893 34.032 321.141 34.256L326.229 35.36C329.333 36.032 331.733 37.312 333.429 39.2C335.125 41.056 335.973 43.28 335.973 45.872C335.973 47.728 335.461 49.472 334.437 51.104C333.413 52.736 331.941 54.064 330.021 55.088C328.133 56.08 325.909 56.576 323.349 56.576Z" fill="black"/>
<path d="M284.518 20.24H291.046V50.24H306.359V56H284.518V20.24Z" fill="black"/>
<path d="M255.972 20.24H279.732V26H262.5V35.168H278.772V40.928H262.5V50.24H279.732V56H255.972V20.24Z" fill="black"/>
<path d="M220.44 20.24H232.104C235.848 20.24 239.128 20.992 241.944 22.496C244.76 24 246.936 26.112 248.472 28.832C250.008 31.52 250.776 34.608 250.776 38.096C250.776 41.552 250.008 44.64 248.472 47.36C246.936 50.08 244.744 52.208 241.896 53.744C239.08 55.248 235.816 56 232.104 56H220.44V20.24ZM232.248 50.24C234.648 50.24 236.744 49.744 238.536 48.752C240.36 47.76 241.752 46.352 242.712 44.528C243.704 42.672 244.2 40.528 244.2 38.096C244.2 35.664 243.704 33.536 242.712 31.712C241.752 29.888 240.36 28.48 238.536 27.488C236.744 26.496 234.648 26 232.248 26H226.968V50.24H232.248Z" fill="black"/>
<path d="M195.916 56.576C192.428 56.576 189.26 55.776 186.412 54.176C183.564 52.544 181.324 50.32 179.692 47.504C178.06 44.688 177.244 41.552 177.244 38.096C177.244 34.64 178.06 31.504 179.692 28.688C181.324 25.872 183.564 23.664 186.412 22.064C189.26 20.464 192.428 19.664 195.916 19.664C199.404 19.664 202.572 20.464 205.42 22.064C208.268 23.664 210.508 25.872 212.14 28.688C213.804 31.504 214.636 34.64 214.636 38.096C214.636 41.552 213.804 44.688 212.14 47.504C210.508 50.32 208.268 52.544 205.42 54.176C202.572 55.776 199.404 56.576 195.916 56.576ZM183.772 38.096C183.772 40.464 184.3 42.608 185.356 44.528C186.412 46.448 187.852 47.952 189.676 49.04C191.532 50.096 193.612 50.624 195.916 50.624C198.22 50.624 200.284 50.096 202.108 49.04C203.964 47.952 205.42 46.448 206.476 44.528C207.532 42.608 208.06 40.464 208.06 38.096C208.06 35.728 207.532 33.6 206.476 31.712C205.42 29.792 203.964 28.304 202.108 27.248C200.284 26.16 198.22 25.616 195.916 25.616C193.612 25.616 191.532 26.16 189.676 27.248C187.852 28.304 186.412 29.792 185.356 31.712C184.3 33.6 183.772 35.728 183.772 38.096Z" fill="black"/>
<path d="M135.456 20.24H141.696L153.6 36.368L165.216 20.24H171.456V56H164.88V31.712L153.84 46.4H153.072L141.984 31.232V56H135.456V20.24Z" fill="black"/>
<path d="M97.5776 20.24H100.218L120.858 49.856V20.24H123.978V56H121.338L100.698 26.336V56H97.5776V20.24Z" fill="black"/>
<path d="M74.3524 56.576C71.1204 56.576 68.1444 55.792 65.4244 54.224C62.7364 52.624 60.5924 50.416 58.9924 47.6C57.4244 44.784 56.6404 41.616 56.6404 38.096C56.6404 34.576 57.4244 31.424 58.9924 28.64C60.5924 25.824 62.7364 23.632 65.4244 22.064C68.1444 20.464 71.1204 19.664 74.3524 19.664C77.5844 19.664 80.5444 20.464 83.2324 22.064C85.9524 23.632 88.0964 25.824 89.6644 28.64C91.2644 31.424 92.0644 34.576 92.0644 38.096C92.0644 41.616 91.2644 44.784 89.6644 47.6C88.0964 50.416 85.9524 52.624 83.2324 54.224C80.5444 55.792 77.5844 56.576 74.3524 56.576ZM59.7604 38.096C59.7604 40.912 60.3684 43.504 61.5844 45.872C62.8324 48.24 64.5604 50.128 66.7684 51.536C69.0084 52.912 71.5364 53.6 74.3524 53.6C77.1364 53.6 79.6324 52.912 81.8404 51.536C84.0804 50.128 85.8244 48.24 87.0724 45.872C88.3204 43.504 88.9444 40.912 88.9444 38.096C88.9444 35.312 88.3204 32.736 87.0724 30.368C85.8564 28 84.1284 26.112 81.8884 24.704C79.6804 23.296 77.1684 22.592 74.3524 22.592C71.5364 22.592 69.0084 23.296 66.7684 24.704C64.5604 26.112 62.8324 28 61.5844 30.368C60.3684 32.736 59.7604 35.312 59.7604 38.096Z" fill="black"/>
<path d="M38.9134 56.576C36.4814 56.576 34.3214 56.048 32.4334 54.992C30.5774 53.936 29.1214 52.48 28.0654 50.624C27.0414 48.736 26.5294 46.576 26.5294 44.144V20.24H29.6494V44.24C29.6494 46.096 30.0334 47.744 30.8014 49.184C31.5694 50.592 32.6574 51.696 34.0654 52.496C35.4734 53.296 37.0894 53.696 38.9134 53.696C40.7054 53.696 42.3054 53.296 43.7134 52.496C45.1214 51.696 46.2094 50.592 46.9774 49.184C47.7454 47.744 48.1294 46.096 48.1294 44.24V20.24H51.2494V44.144C51.2494 46.576 50.7374 48.736 49.7134 50.624C48.6894 52.512 47.2334 53.984 45.3454 55.04C43.4894 56.064 41.3454 56.576 38.9134 56.576Z" fill="black"/>
<path d="M4.51202 20.24H7.63202V53.12H23.712V56H4.51202V20.24Z" fill="black"/>
</svg>
