<?xml version="1.0" standalone="no"?><!DOCTYPE svg PUBLIC "-//W3C//DTD SVG 1.1//EN" "http://www.w3.org/Graphics/SVG/1.1/DTD/svg11.dtd"><svg t="1722850237911" class="icon" viewBox="0 0 1024 1024" version="1.1" xmlns="http://www.w3.org/2000/svg" p-id="11286" xmlns:xlink="http://www.w3.org/1999/xlink" width="128" height="128"><path d="M512 0C230.4 0 0 230.4 0 512s230.4 512 512 512 512-230.4 512-512S793.6 0 512 0z m110.933 387.413c0-30.72 23.894-54.613 54.614-54.613s54.613 23.893 54.613 54.613V460.8c0 30.72-23.893 54.613-54.613 54.613s-54.614-23.893-54.614-54.613v-73.387z m-329.386 0c0-30.72 23.893-54.613 54.613-54.613s54.613 23.893 54.613 54.613V460.8c0 30.72-23.893 54.613-54.613 54.613s-54.613-23.893-54.613-54.613v-73.387z m481.28 295.254c-63.147 81.92-158.72 128-261.12 128s-196.267-46.08-259.414-126.294c-11.946-15.36-10.24-39.253 6.827-51.2 15.36-11.946 39.253-10.24 51.2 6.827 49.493 63.147 122.88 98.987 201.387 98.987 80.213 0 153.6-35.84 203.093-100.694 11.947-15.36 35.84-18.773 51.2-6.826 15.36 11.946 18.773 34.133 6.827 51.2z" fill="#3699ff" p-id="11287"></path></svg>